<svg width="30" height="30" viewBox="0 0 30 30" fill="none" xmlns="http://www.w3.org/2000/svg">
<path d="M11.75 20.625L15 17.375L18.25 20.625L20 18.875L16.75 15.625L20 12.375L18.25 10.625L15 13.875L11.75 10.625L10 12.375L13.25 15.625L10 18.875L11.75 20.625ZM8.75 26.25C8.0625 26.25 7.47417 26.0054 6.985 25.5163C6.495 25.0263 6.25 24.4375 6.25 23.75V7.5H5V5H11.25V3.75H18.75V5H25V7.5H23.75V23.75C23.75 24.4375 23.5054 25.0263 23.0163 25.5163C22.5263 26.0054 21.9375 26.25 21.25 26.25H8.75Z" fill="#963434"/>
</svg>
