<svg width="30" height="30" viewBox="0 0 30 30" fill="none" xmlns="http://www.w3.org/2000/svg">
<path d="M11.9375 21.9688C11.7709 21.9688 11.6146 21.9425 11.4688 21.89C11.3229 21.8375 11.1875 21.7492 11.0625 21.625L5.68753 16.25C5.45836 16.0208 5.34878 15.7237 5.35878 15.3587C5.36878 14.9937 5.48878 14.6971 5.71878 14.4687C5.94795 14.2396 6.23961 14.125 6.59378 14.125C6.94795 14.125 7.23961 14.2396 7.46878 14.4687L11.9375 18.9375L22.5313 8.34375C22.7604 8.11458 23.0575 8 23.4225 8C23.7875 8 24.0842 8.11458 24.3125 8.34375C24.5417 8.57292 24.6563 8.87 24.6563 9.235C24.6563 9.6 24.5417 9.89667 24.3125 10.125L12.8125 21.625C12.6875 21.75 12.5521 21.8388 12.4063 21.8913C12.2604 21.9438 12.1042 21.9696 11.9375 21.9688Z" fill="#2E9D2C"/>
</svg>
