<svg width="12" height="7" viewBox="0 0 12 7" fill="none" xmlns="http://www.w3.org/2000/svg">
<path d="M0.275025 4.875L4.87502 0.275C4.97502 0.175 5.08336 0.104333 5.20002 0.0629997C5.31669 0.0216664 5.44169 0.000666667 5.57502 0C5.70836 0 5.83336 0.0209997 5.95002 0.0629997C6.06669 0.105 6.17502 0.175666 6.27502 0.275L10.875 4.875C11.0584 5.05833 11.15 5.29167 11.15 5.575C11.15 5.85833 11.0584 6.09167 10.875 6.275C10.6917 6.45833 10.4584 6.55 10.175 6.55C9.89169 6.55 9.65836 6.45833 9.47502 6.275L5.57502 2.375L1.67502 6.275C1.49169 6.45833 1.25836 6.55 0.975024 6.55C0.691691 6.55 0.458359 6.45833 0.275025 6.275C0.091692 6.09167 2.38419e-05 5.85833 2.38419e-05 5.575C2.38419e-05 5.29167 0.091692 5.05833 0.275025 4.875Z" fill="#B99CE8"/>
</svg>
